<svg xmlns="http://www.w3.org/2000/svg" width="261" height="40" viewBox="0 0 261 40">
  <g id="Group_24" data-name="Group 24" transform="translate(-860 -257)">
    <g id="Group_2" data-name="Group 2" transform="translate(860 257)">
      <g id="visa-light-large" transform="translate(0)">
        <rect id="card_bg" width="59" height="40" rx="4" fill="#dfe3e8"/>
        <path id="visa-logo" d="M20.858,11.671a8.737,8.737,0,0,1-3.192-.6l.527-2.452a6.153,6.153,0,0,0,2.913.736h.078c.873-.013,1.753-.362,1.753-1.115.012-.48-.4-.862-1.52-1.41-1.1-.538-2.562-1.442-2.562-3.077,0-2.209,2.016-3.751,4.9-3.751A7.863,7.863,0,0,1,26.5.5L25.99,2.955a5.531,5.531,0,0,0-2.354-.53c-.18,0-.362.009-.54.027-.847.112-1.226.555-1.226.944,0,.475.607.793,1.376,1.2,1.22.639,2.738,1.434,2.73,3.3l.062-.1c-.012,2.354-2.02,3.874-5.112,3.874Zm8.123-.1H25.892l4.4-10.506A1.332,1.332,0,0,1,31.519.233h2.452l2.377,11.339H33.627l-.355-1.691H29.582l-.6,1.691ZM31.9,3.3,30.354,7.551h2.439ZM15.569,11.536H12.627L15.079.2h2.941L15.569,11.536ZM9.133,11.5h-3.2L3.592,2.439a1.233,1.233,0,0,0-.7-.993A12.157,12.157,0,0,0,0,.49L.074.159H5.063a1.371,1.371,0,0,1,1.36,1.153L7.649,7.87,10.7.159H13.89L9.134,11.5Z" transform="translate(11.23 13.767)" fill="#2a2a6c"/>
      </g>
    </g>
    <g id="mastercard-light-large" transform="translate(926.841 257)">
      <rect id="card_bg-2" data-name="card_bg" width="59" height="40" rx="4" transform="translate(0.159)" fill="#dfe3e8"/>
      <g id="mastercard" transform="translate(5.736 3.948)">
        <g id="Group" transform="translate(0 0)" opacity="0">
          <rect id="Rectangle" width="47.753" height="31.58" fill="#fff"/>
        </g>
        <rect id="Rectangle-2" data-name="Rectangle" width="12.595" height="20.576" transform="translate(17.579 5.502)" fill="#f26122"/>
        <path id="Path" d="M16.245,13.089A13.052,13.052,0,0,1,21.179,2.8a13.089,13.089,0,1,0,0,20.576A13.052,13.052,0,0,1,16.245,13.089Z" transform="translate(2.691 2.701)" fill="#ea1d25"/>
        <path id="Shape" d="M.617.508H.531V0H.654l.16.357L.963,0h.123V.505H1V.123L.864.456h-.1L.617.123V.506Zm-.371,0H.173V.087H0V0H.432V.087H.246V.505Z" transform="translate(43.534 23.389)" fill="#f69e1e"/>
        <path id="Path-2" data-name="Path" d="M21.169,13.08A13.089,13.089,0,0,1,0,23.368,13.089,13.089,0,0,0,2.2,5,12.829,12.829,0,0,0,0,2.792,13.089,13.089,0,0,1,21.169,13.08Z" transform="translate(23.87 2.71)" fill="#f69e1e"/>
      </g>
    </g>
    <g id="americanexpress-light-large" transform="translate(993.682 257)">
      <rect id="card_bg-3" data-name="card_bg" width="59" height="40" rx="4" transform="translate(0.318)" fill="#dfe3e8"/>
      <g id="amex" transform="translate(0 8.935)">
        <path id="Path-3" data-name="Path" d="M1.576,1.092l.67,1.638H0L.683,1.092,1.129,0l.447,1.092Z" transform="translate(2.954 3.053)" fill="#296db6"/>
        <path id="Shape-2" data-name="Shape" d="M38.42,10.177a4.938,4.938,0,0,1-2.879-.92v.918H29.572l-1.44-1.811v1.811H5.374L4.8,8.662H3.414L2.83,10.175H0V8.662H1.887l.6-1.465H5.746l.6,1.415H8.253l-3-7H3.041L0,8.659V4.715L1.987,0H6.032L7.2,2.606V0h4.964l.745,2.234L13.651.049h21.89V1.068A4.842,4.842,0,0,1,38.5.047l.139,0h6.626L46.51,2.656V.049h3.9L51.735,2.11V.049H56.19V10.175H52l-1.242-1.96v1.96h-6.08l-.608-1.513h-1.39l-.571,1.513H38.544ZM47.85,1.613V8.662h1.663V3.946l.447.769,2.594,3.9h1.985L54.6,1.564H52.864V6.13l-.471-.794L49.911,1.613Zm-5.546,0-3,7.049h1.812l.6-1.465h3.314l.6,1.415h1.912l-2.991-7ZM38.245,1.6a3.165,3.165,0,0,0-3.151,3.458v.1a3.1,3.1,0,0,0,3.081,3.455c.057,0,.114,0,.17,0h.1l.682-1.489h-.533l-.087,0a1.738,1.738,0,0,1-1.725-1.963v-.1a1.739,1.739,0,0,1,1.725-1.938l.087,0h1.848V1.613H38.469C38.395,1.607,38.319,1.6,38.245,1.6ZM32.4,1.613v7h1.7v-7ZM27.04,6.13h.769L29.9,8.612h2.159L29.721,6.031a2.161,2.161,0,0,0,1.911-2.209A2.2,2.2,0,0,0,29.15,1.613H25.316v7H27.04V6.132ZM15.622,2.961h0V8.612h1.638v-7H14.52L13.13,5.659l-.223.769-.223-.769L11.318,1.613H8.576v7H10.2V2.953l.347,1.068,1.589,4.591h1.513L15.3,4.021Zm2.993-1.348v6.95H24.2V7.073H20.265V5.832H24.1V4.343H20.265V3.1H24.2V1.613ZM44.55,5.783H42.343l.644-1.638.447-1.092L43.855,4.1l.247.6-.247-.6-.422-1.043.447,1.092.256.626h0l.394.958h0l-.733-1.585.756,1.637ZM29.112,4.65A.768.768,0,0,1,29,4.642H27.04V3.1H29a.779.779,0,0,1,.868.765v.025a.756.756,0,0,1-.757.757Zm.5-.24a.755.755,0,0,1-.5.19A.754.754,0,0,0,29.615,4.409Z" transform="translate(0 0)" fill="#296db6"/>
        <path id="Shape-3" data-name="Shape" d="M25.439,10.128H21.183V7.57a6.114,6.114,0,0,1-1.807.273h-.749v2.284H12.36L11.317,8.612,10.25,10.126H0V0H10.275l1.042,1.489L12.385,0H48.545V1.564H44.909A2.159,2.159,0,0,0,42.5,3.773a1.947,1.947,0,0,0,2.183,2.059h1.6a.634.634,0,0,1,.651.269.632.632,0,0,1-.651.972H42.7v1.49h3.562c.067.006.135.009.2.009A2.205,2.205,0,0,0,48.52,7.148V9.505a4.154,4.154,0,0,1-2.188.622H26.879l-1.44-1.813v1.813Zm-14.122-3.8h0L13,8.563l2.135.049L12.31,5.088l2.78-3.525H13.03L11.317,3.773l-1.7-2.185H7.507l2.817,3.5L7.594,8.563H9.568L11.316,6.33Zm24.918.744v1.49h3.624c.057,0,.116.007.173.007A2.172,2.172,0,0,0,42.2,6.329a1.922,1.922,0,0,0-2.185-2.01H38.394a.633.633,0,1,1,0-1.241H41.41l.67-1.49H38.444a2.16,2.16,0,0,0-2.407,2.185A1.947,1.947,0,0,0,38.22,5.832h1.638a.633.633,0,1,1,0,1.241ZM24.284,6.08h.769l2.085,2.483H29.3L26.952,5.982a2.224,2.224,0,0,0-.52-4.418h-3.8v7h1.65V6.081ZM15.437,1.564v7H17.1V6.254h2.147A2.3,2.3,0,0,0,21.778,3.9,2.246,2.246,0,0,0,19.3,1.564Zm14.259,0V8.488h5.646V7H31.407V5.758h3.835V4.293H31.407V3.052h3.9l.037-1.489Zm-28.083,0V8.488H7.235V7H3.3V5.758H7.16V4.293H3.3V3.052H7.235V1.564ZM48.48,5.455a2.009,2.009,0,0,0-2.033-1.162H44.822a.633.633,0,1,1,0-1.241h3.053l.608-1.44V5.454Zm-29.333-.69h-2.01V3.052h2.01a.857.857,0,1,1,0,1.713ZM26.4,4.6a.759.759,0,0,1-.113-.008h-1.96V3.052h1.96a.782.782,0,0,1,.1-.006.77.77,0,0,1,.771.776v.021A.757.757,0,0,1,26.4,4.6Z" transform="translate(11.02 13.278)" fill="#296db6"/>
      </g>
    </g>
    <g id="jcb-light-large" transform="translate(1061.32 257)">
      <rect id="card_bg-4" data-name="card_bg" width="60" height="40" rx="4" transform="translate(-0.32)" fill="#dfe3e8"/>
      <g id="jcb-logo" transform="translate(9.951 4.975)">
        <rect id="Rectangle-3" data-name="Rectangle" width="12.252" height="16.841" transform="translate(0.037 7.973)" fill="#fff"/>
        <rect id="Rectangle-4" data-name="Rectangle" width="12.276" height="14.801" transform="translate(13.794 7.973)" fill="#fff"/>
        <rect id="Rectangle-5" data-name="Rectangle" width="12.252" height="16.194" transform="translate(27.538 7.625)" fill="#fff"/>
        <path id="Path-4" data-name="Path" d="M0,2.5H3.221A1.244,1.244,0,0,0,4.229,1.254,1.331,1.331,0,0,0,3.221.01a1.53,1.53,0,0,0-.348,0H0Z" transform="translate(29.976 15.625)" fill="#40a648"/>
        <path id="Path-5" data-name="Path" d="M5,0A4.975,4.975,0,0,0,.025,4.975v5.162H7.052a2.127,2.127,0,0,1,.5,0c1.58.075,2.761.9,2.761,2.313a2.338,2.338,0,0,1-2.276,2.276h0c1.617.112,2.848,1.007,2.848,2.413s-1.368,2.488-3.172,2.488H0V29.852H7.314a4.975,4.975,0,0,0,4.975-4.975V0Z" transform="translate(27.513)" fill="#40a648"/>
        <path id="Path-6" data-name="Path" d="M3.881,1.244A1.169,1.169,0,0,0,2.873,0H0V2.4H2.6a.9.9,0,0,0,.274,0A1.157,1.157,0,0,0,3.881,1.231Z" transform="translate(29.976 11.58)" fill="#40a648"/>
        <path id="Path-7" data-name="Path" d="M4.975,0A4.975,4.975,0,0,0,0,4.975V17.252a9.839,9.839,0,0,0,4.291,1.119,2.388,2.388,0,0,0,2.662-2.488V10.112h4.241v5.771c0,2.239-1.393,4.067-6.12,4.067A21.145,21.145,0,0,1,0,19.329V29.852H7.3a4.975,4.975,0,0,0,4.975-4.975V0Z" transform="translate(0)" fill="#0d67b0"/>
        <path id="Path-8" data-name="Path" d="M4.975,0A4.975,4.975,0,0,0,0,4.975V11.48c1.244-1.07,3.445-1.754,6.965-1.58a21.481,21.481,0,0,1,3.906.6v2.1a9.441,9.441,0,0,0-3.731-1.095c-2.674-.187-4.291,1.119-4.291,3.42s1.617,3.632,4.291,3.42a10.075,10.075,0,0,0,3.731-1.095v2.1a21.02,21.02,0,0,1-3.906.6c-3.52.174-5.709-.51-6.965-1.58v11.48H7.351a4.975,4.975,0,0,0,4.975-4.975V0Z" transform="translate(13.794)" fill="#be2034"/>
      </g>
    </g>
  </g>
</svg>
